# xmcd CD database file
#
# Track frame offsets:
#	150
#	15780
#	29058
#	46154
#	60638
#	73752
#	90951
#	108687
#	120868
#	134183
#	147783
#	166484
#	180352
#
# Disc length: 2559 seconds
#
# Revision: 1
# Processed by: cddbd v1.5.2PL0 Copyright (c) Steve Scherf et al.
# Submitted via: cdripper 1.0.8
#
DISCID=aa09fd0d
DTITLE=Brenno Reis e Marco Viola - Brenno Reis e Marco Viola - 2004 - Eu Te Amo
DYEAR=2004
DGENRE=Country
TTITLE0=Vida Abandonada
TTITLE1=O Tigrão
TTITLE2=Eu Te Amo
TTITLE3=Pé de Pano
TTITLE4=Mulher-Avião
TTITLE5=Terra de Rei e Rainha
TTITLE6=Minuto de Fragilidade
TTITLE7=Só Deus Pra Segurar
TTITLE8=Poe e Tira - Part. Especial Teodoro e Sampaio
TTITLE9=Vou Onde Tem Amor
TTITLE10=Estranha Solidão
TTITLE11=Violeiro Sem Viola
TTITLE12=Sete Noites de Paixão
EXTD=Noslei Mp3 YEAR: 2004
EXTT0=
EXTT1=
EXTT2=
EXTT3=
EXTT4=
EXTT5=
EXTT6=
EXTT7=
EXTT8=
EXTT9=
EXTT10=
EXTT11=
EXTT12=
PLAYORDER=
